<?xml version="1.0" encoding="UTF-8" standalone="no"?>
<!-- Created with Inkscape (http://www.inkscape.org/) -->

<svg
   xmlns:dc="http://purl.org/dc/elements/1.1/"
   xmlns:cc="http://creativecommons.org/ns#"
   xmlns:rdf="http://www.w3.org/1999/02/22-rdf-syntax-ns#"
   xmlns:svg="http://www.w3.org/2000/svg"
   xmlns="http://www.w3.org/2000/svg"
   xmlns:sodipodi="http://sodipodi.sourceforge.net/DTD/sodipodi-0.dtd"
   xmlns:inkscape="http://www.inkscape.org/namespaces/inkscape"
   width="204.96033mm"
   height="202.28764mm"
   viewBox="0 0 204.96033 202.28764"
   version="1.1"
   id="svg8"
   inkscape:version="0.92.4 (5da689c313, 2019-01-14)"
   sodipodi:docname="giro.svg">
  <defs
     id="defs2" />
  <sodipodi:namedview
     id="base"
     pagecolor="#ffffff"
     bordercolor="#666666"
     borderopacity="1.0"
     inkscape:pageopacity="0.0"
     inkscape:pageshadow="2"
     inkscape:zoom="0.49497475"
     inkscape:cx="-32.244654"
     inkscape:cy="525.54583"
     inkscape:document-units="mm"
     inkscape:current-layer="layer1"
     showgrid="false"
     inkscape:window-width="1920"
     inkscape:window-height="1017"
     inkscape:window-x="-8"
     inkscape:window-y="-8"
     inkscape:window-maximized="1" />
  <metadata
     id="metadata5">
    <rdf:RDF>
      <cc:Work
         rdf:about="">
        <dc:format>image/svg+xml</dc:format>
        <dc:type
           rdf:resource="http://purl.org/dc/dcmitype/StillImage" />
        <dc:title />
      </cc:Work>
    </rdf:RDF>
  </metadata>
  <g
     inkscape:label="Layer 1"
     inkscape:groupmode="layer"
     id="layer1"
     transform="translate(-2.4909187,-47.746041)">
    <g
       id="g3724"
       transform="matrix(3.1575543,0,0,3.1163794,-166.42434,-334.87735)">
      <path
         style="fill:#333333;fill-opacity:1;stroke-width:0.35277775"
         d="m 85.799962,187.13492 c -0.304901,-0.3049 -0.554366,-0.69044 -0.554366,-0.85675 0,-0.16631 0.249465,-0.55184 0.554366,-0.85674 0.304899,-0.3049 0.690435,-0.55437 0.856745,-0.55437 0.16631,0 0.551847,0.24947 0.856746,0.55437 0.304902,0.3049 0.554365,0.69043 0.554365,0.85674 0,0.16631 -0.249463,0.55185 -0.554365,0.85675 -0.304899,0.3049 -0.690436,0.55437 -0.856746,0.55437 -0.16631,0 -0.551846,-0.24947 -0.856745,-0.55437 z m 0.299864,-3.44759 c -0.338564,-0.88228 -0.0079,-2.17165 0.556881,-2.17165 0.367118,0 0.529167,0.36911 0.529167,1.20532 0,1.25085 -0.728225,1.8988 -1.086048,0.96633 z m -3.762439,-4.12036 c -2.77958,-0.25071 -6.617132,-1.81563 -9.018846,-3.22979 -2.691921,-1.58505 -7.004164,-5.96084 -8.631588,-8.7588 -4.40887,-7.57995 -4.354062,-17.28916 0.140861,-24.95347 1.530004,-2.60882 5.905697,-6.98451 8.514514,-8.51451 7.664314,-4.49493 17.373518,-4.54974 24.953473,-0.14087 2.797959,1.62743 7.173749,5.93967 8.758799,8.63159 8.31362,14.11923 0.81847,32.32691 -14.989581,36.41364 -2.693105,0.69623 -7.15419,0.78433 -9.727632,0.55221 z m 10.66932,-2.0783 c 7.000983,-2.39123 12.723803,-8.10467 15.224373,-15.19938 0.68926,-1.95561 1.16254,-2.99391 1.16254,-7.05556 0,-4.06165 -0.47328,-5.09994 -1.16254,-7.05555 -2.49603,-7.08184 -8.14254,-12.72835 -15.224373,-15.22437 -1.95561,-0.68926 -2.910383,-1.15899 -6.972033,-1.15899 -4.06165,0 -5.183468,0.46973 -7.139077,1.15899 -7.096543,2.5012 -12.819097,8.23449 -15.195887,15.22437 -1.06651,3.13649 -1.314088,8.79828 -0.530656,12.13539 1.979068,8.43005 8.967661,15.55437 17.318353,17.65471 3.126445,0.78635 9.531223,0.54098 12.5193,-0.47961 z m -7.279978,-0.89696 c -4.526883,-3.17076 -5.485218,-31.55326 -1.372285,-40.64228 2.565083,-5.66849 5.62761,-0.94683 6.730442,10.37666 0.216133,2.21918 0.173927,2.55764 -0.318932,2.55764 -0.633158,0 -0.792039,-0.55204 -1.116831,-3.88055 -0.521888,-5.34838 -1.923767,-10.05417 -2.995192,-10.05417 -1.842458,0 -3.525001,9.68225 -3.525001,20.28472 0,10.6568 1.839009,20.95222 3.638454,20.36937 1.030789,-0.33388 2.392465,-5.12468 2.881739,-10.13881 0.321049,-3.29017 0.484029,-3.88056 1.071249,-3.88056 0.665377,0 0.664055,0.96229 -0.0075,5.46806 -0.687384,4.61182 -1.776222,8.15909 -2.826964,9.20983 -0.98703,0.98703 -1.179276,1.01642 -2.159158,0.33009 z m -1.186688,-17.02988 c 0,-0.6894 0.258587,-0.72349 6.790971,-0.8952 5.628972,-0.14796 7.364426,-0.32487 10.142358,-1.03389 3.92341,-1.00138 5.46806,-1.67907 5.46806,-2.39901 0,-0.71993 -1.54465,-1.39762 -5.46806,-2.39901 -2.777932,-0.70902 -4.513386,-0.88593 -10.142358,-1.03389 -6.533751,-0.17174 -6.790971,-0.20566 -6.790971,-0.89562 0,-0.70197 0.128589,-0.71236 6.085416,-0.49185 8.653299,0.32034 14.884343,1.63588 16.989573,3.58694 1.14269,1.05901 1.14269,1.40786 0,2.46687 -2.10777,1.95342 -8.357761,3.28734 -16.813184,3.5884 -6.132217,0.21834 -6.261805,0.20812 -6.261805,-0.49374 z m -9.877777,-0.25752 c -7.349977,-1.07416 -10.74853,-2.86548 -9.384911,-4.94663 0.955994,-1.45903 6.351245,-3.01599 12.295327,-3.54817 2.371984,-0.21237 2.734028,-0.17011 2.734028,0.31911 0,0.63034 -0.327447,0.71787 -4.586111,1.22598 -4.329157,0.51652 -7.981463,1.41937 -8.90185,2.20054 l -0.799538,0.67859 0.799538,0.6786 c 0.920387,0.78116 4.572693,1.68401 8.90185,2.20053 4.22638,0.50426 4.586111,0.59718 4.586111,1.18454 0,0.63364 -1.344731,0.63529 -5.644444,0.007 z m 9.877777,-4.12419 v -2.17027 l 3.680551,0.22519 c 3.718175,0.2275 7.273568,1.11969 7.518181,1.88662 0.07317,0.22939 -0.200117,0.59537 -0.6073,0.81329 -1.159535,0.62057 -5.837138,1.41545 -8.329411,1.41545 h -2.262021 z m 3.499074,0.55327 c 0.505741,-1.4194 -0.824676,-2.37005 -1.999769,-1.69476 -1.138751,0.95819 -0.342869,2.53661 0.735479,2.4999 0,0 0.968497,0.025 1.26429,-0.80514 z m -9.408102,0.38553 c -1.47242,-0.63998 -1.450593,-1.1469 0.07686,-1.78511 1.637961,-0.68439 1.598831,-0.70641 1.598831,0.89994 0,1.5669 -0.04839,1.59246 -1.675695,0.88517 z m -24.581049,-0.0284 c -0.304901,-0.30488 -0.554365,-0.69042 -0.554365,-0.85673 0,-0.3919 1.019212,-1.41111 1.411111,-1.41111 0.391898,0 1.411111,1.01921 1.411111,1.41111 0,0.3919 -1.019213,1.41111 -1.411111,1.41111 -0.16631,0 -0.551846,-0.24946 -0.856746,-0.55436 z m 62.088886,0 c -0.3049,-0.30488 -0.55437,-0.69042 -0.55437,-0.85673 0,-0.16631 0.24947,-0.55184 0.55437,-0.85674 0.3049,-0.3049 0.69043,-0.55437 0.85674,-0.55437 0.16631,0 0.55185,0.24947 0.85675,0.55437 0.3049,0.3049 0.55436,0.69043 0.55436,0.85674 0,0.16631 -0.24946,0.55185 -0.55436,0.85675 -0.3049,0.3049 -0.69044,0.55436 -0.85675,0.55436 -0.16631,0 -0.55184,-0.24946 -0.85674,-0.55436 z m -58.945794,-0.5148 c -0.385673,-0.62404 0.342128,-1.11496 1.463038,-0.98687 1.418191,0.16207 1.341513,1.14223 -0.100304,1.28219 -0.612381,0.0594 -1.225612,-0.0735 -1.362734,-0.29532 z m 55.033324,0 c -0.38567,-0.62404 0.34213,-1.11496 1.46304,-0.98687 1.4182,0.16207 1.34152,1.14223 -0.1003,1.28219 -0.61238,0.0594 -1.22561,-0.0735 -1.36274,-0.29532 z M 86.099826,128.65401 c -0.338564,-0.88229 -0.0079,-2.17166 0.556881,-2.17166 0.367118,0 0.529167,0.36911 0.529167,1.20532 0,1.25085 -0.728225,1.8988 -1.086048,0.96634 z m -0.299864,-3.60797 c -0.304901,-0.3049 -0.554366,-0.69044 -0.554366,-0.85675 0,-0.3919 1.019214,-1.41111 1.411111,-1.41111 0.391898,0 1.411111,1.01921 1.411111,1.41111 0,0.3919 -1.019213,1.41111 -1.411111,1.41111 -0.16631,0 -0.551846,-0.24946 -0.856745,-0.55436 z"
         id="path3726"
         inkscape:connector-curvature="0"
         sodipodi:nodetypes="cscscscscsssssccscsccsccsccsssscccsssssscsscsccsssscsscsssscccsscccssccccccssccsccsccscccsssscccsssssssccsccscacccssccssssc" />
    </g>
  </g>
</svg>
